# xmcd
#
# Track frame offsets: 
#        150
#        20625
#        41797
#        59091
#        83215
#        104089
#        124521
#        146281
#        164598
#        182047
#        212303
#        231936
#        256205
#        268587
#        289731
#        306409
#
# Disc length: 4449 seconds
#
# Revision: 1
# Processed by: cddbd v1.5.2PL0 Copyright (c) Steve Scherf et al.
# Submitted via: ExactAudioCopyFreeDBPlugin 1.0
#
DISCID=ef115f10
DTITLE=群星 - 试音宝典09号
DYEAR=2009
DGENRE=Acid
TTITLE0=杏花溪之恋
TTITLE1=爱的代价
TTITLE2=女儿情
TTITLE3=我终于失去了你
TTITLE4=下辈子不做女人
TTITLE5=老人与海
TTITLE6=梦中的蝴碟
TTITLE7=驼铃
TTITLE8=原乡人
TTITLE9=霸王别姬
TTITLE10=三套车
TTITLE11=今天是你的生日
TTITLE12=初恋的地方
TTITLE13=相见在明天
TTITLE14=少林少林
TTITLE15=特别收录：世博唱红之昂(星)日本原版
EXTD=
EXTT0=
EXTT1=
EXTT2=
EXTT3=
EXTT4=
EXTT5=
EXTT6=
EXTT7=
EXTT8=
EXTT9=
EXTT10=
EXTT11=
EXTT12=
EXTT13=
EXTT14=
EXTT15=
PLAYORDER=
